P2
100 100
255
255 255 255 255 255 255 255 255 255 255 255 255 255 255 255 255 255 255 255 255 255 255 255 255 255 255 255 255 255 255 255 255 255 255 255 255 255 255 255 255 255 255 255 255 255 255 255 255 255 255 255 255 255 255 255 255 255 255 255 255 255 255 255 255 255 255 255 255 255 255 255 255 255 255 255 255 255 255 255 255 255 255 255 255 255 255 255 255 255 255 255 255 255 255 255 255 255 255 255 95 
255 147 148 151 162 179 195 204 187 135 43 0 0 58 122 111 101 95 93 106 135 143 129 190 154 105 106 109 112 118 126 144 128 141 126 132 137 118 73 68 46 52 56 88 72 136 181 176 147 62 46 89 187 155 153 139 141 131 131 153 188 158 142 184 122 81 64 68 95 93 84 65 124 173 132 115 118 123 152 221 181 131 15 72 230 227 223 174 109 85 89 106 83 97 126 100 10 0 0 0 
255 155 158 158 170 195 204 199 171 122 45 0 0 66 131 122 111 102 98 113 140 143 130 189 157 110 113 113 115 116 127 143 127 143 127 134 140 122 78 76 55 60 64 93 75 141 188 185 155 66 51 98 193 162 159 149 148 135 136 159 197 168 138 153 122 90 77 84 100 101 93 73 126 172 131 115 121 128 129 171 195 159 114 92 182 225 226 176 117 90 90 111 95 114 133 30 0 0 0 0 
255 163 166 160 173 202 202 177 150 125 63 0 0 66 137 123 109 98 100 119 142 143 130 192 158 110 114 111 108 112 123 141 126 142 127 130 138 121 77 70 49 51 61 84 69 136 180 180 152 64 52 99 186 158 156 145 145 133 130 156 200 165 131 143 130 113 87 89 91 82 79 58 115 166 123 114 122 131 131 136 194 178 139 136 125 210 237 180 120 91 94 121 110 119 62 0 0 0 0 0 
255 169 171 169 189 211 193 155 147 136 76 0 0 59 134 124 106 97 103 118 141 144 133 193 160 110 109 106 108 112 120 138 122 140 120 125 140 127 72 55 32 38 53 75 57 129 172 167 144 61 49 94 181 156 153 141 141 128 131 154 199 164 124 148 138 132 101 89 81 67 65 50 108 159 126 117 127 134 134 128 162 201 152 188 128 159 240 192 124 90 86 121 102 28 0 0 0 0 103 0 
255 173 175 179 202 215 180 145 148 152 85 0 0 64 139 124 108 99 102 118 139 144 135 189 158 109 109 107 106 113 124 140 125 140 126 128 140 128 70 54 33 40 57 81 57 132 174 172 148 65 49 92 184 159 157 144 143 132 137 158 194 162 125 151 138 132 102 85 78 61 64 51 109 160 130 120 134 141 142 135 130 191 177 209 196 121 205 186 121 94 97 123 21 0 0 0 0 60 115 0 
255 175 180 187 195 189 155 137 155 157 81 0 0 72 141 119 102 95 101 115 138 144 128 184 151 104 107 105 102 110 122 137 122 142 132 135 139 121 61 59 45 56 62 77 53 126 170 175 158 71 50 90 190 163 159 142 143 133 136 156 193 165 128 143 129 122 96 79 75 60 59 53 111 157 127 117 126 133 134 133 122 150 202 230 233 143 136 163 113 94 101 48 0 0 0 18 76 76 104 0 
255 174 185 176 165 148 138 141 163 159 78 0 0 65 137 120 102 97 102 117 139 147 129 187 153 105 104 104 104 117 127 136 124 144 133 136 135 120 66 68 57 69 90 118 90 150 177 167 148 61 43 88 189 165 161 145 143 134 135 154 191 166 135 138 118 116 94 80 75 64 60 50 107 158 121 114 118 118 116 117 115 124 192 255 244 192 100 120 118 96 26 0 0 0 37 123 77 52 85 0 
255 173 180 148 118 123 145 161 173 162 85 0 0 72 142 122 108 107 108 123 144 149 133 191 161 110 113 111 115 128 135 140 129 155 134 129 134 138 102 115 116 148 196 249 238 255 255 255 187 58 28 83 190 167 164 146 144 135 134 156 194 163 130 129 112 118 94 77 77 68 66 48 108 157 122 109 108 108 108 113 115 118 150 255 255 221 156 81 127 42 0 0 0 10 146 124 49 33 79 0 
255 178 171 108 72 121 170 186 176 164 85 0 0 66 137 120 106 102 111 126 152 150 133 192 164 110 115 119 121 126 128 136 127 150 128 137 164 180 143 141 148 177 211 251 218 255 255 255 255 197 98 94 180 161 160 142 138 128 128 147 189 163 126 128 112 126 101 79 80 71 68 49 107 156 115 99 101 104 109 116 122 126 122 236 255 239 222 98 39 0 0 0 0 109 138 91 36 34 86 0 
255 181 140 46 44 146 212 205 178 162 83 0 0 54 128 113 98 95 107 120 141 141 128 185 155 105 106 112 114 114 120 149 158 172 130 136 171 172 122 110 97 114 117 123 90 148 194 227 255 229 230 204 207 149 145 129 129 121 119 139 181 156 121 131 117 134 109 83 85 74 69 53 101 146 102 92 100 111 120 124 128 131 122 189 255 255 251 110 0 0 0 27 106 119 119 76 39 49 102 0 
255 169 80 0 30 192 255 213 175 156 80 0 0 46 124 109 97 97 106 114 126 130 115 176 148 97 102 111 104 119 131 148 141 147 111 122 154 122 56 62 64 74 71 93 75 154 203 202 173 93 115 224 255 203 140 115 115 111 117 141 183 158 119 125 118 135 112 86 81 73 65 55 107 139 98 97 116 123 131 135 140 144 136 189 254 255 242 0 0 0 0 126 116 96 99 79 53 59 103 0 
255 125 0 0 50 255 255 205 168 144 68 0 0 49 133 125 111 107 109 115 126 128 110 174 145 102 106 111 109 120 114 107 96 97 78 120 153 116 62 66 43 60 83 117 104 171 207 196 173 84 61 117 255 255 235 124 97 93 106 142 186 162 126 128 121 144 121 92 78 64 49 38 106 149 108 113 130 131 135 140 145 149 145 206 248 255 91 0 0 0 95 138 97 84 99 83 65 66 83 0 
255 53 0 0 123 255 255 203 162 141 65 0 0 51 150 139 124 112 110 113 128 135 120 180 152 106 107 111 131 119 96 65 86 118 126 146 162 136 91 89 54 63 79 112 106 169 200 189 176 92 73 114 192 190 255 250 170 101 102 140 182 161 130 133 130 156 131 101 84 51 21 5 92 161 120 128 141 133 133 143 149 151 146 208 254 145 0 0 0 0 121 121 79 87 112 105 86 70 160 0 
255 0 0 0 215 255 255 209 166 140 67 0 0 63 158 138 116 107 109 118 136 139 125 188 164 114 111 117 128 109 62 91 130 151 144 148 147 129 94 85 62 79 91 114 108 178 209 192 175 83 59 103 193 179 212 255 255 231 103 140 182 156 129 131 128 159 131 96 86 46 0 0 69 171 130 122 140 132 136 147 151 147 142 215 188 2 0 0 0 104 108 104 79 88 118 120 97 130 255 31 
255 0 0 69 255 255 255 207 168 137 63 0 0 71 155 135 115 108 111 121 139 142 128 191 167 117 118 118 97 69 52 131 155 169 137 134 138 134 90 79 60 71 91 123 127 201 217 186 147 57 61 130 233 213 210 196 255 255 89 114 187 159 127 129 126 156 125 87 74 42 0 0 23 176 142 114 130 130 135 149 148 142 144 186 53 0 0 29 130 115 87 95 82 104 130 135 158 235 255 57 
255 0 0 143 255 255 255 203 166 133 59 0 0 71 152 127 116 111 110 116 134 138 126 194 168 116 114 99 74 51 87 164 155 152 131 140 150 154 111 95 72 87 90 127 128 187 174 150 154 107 112 162 245 202 180 149 139 155 110 73 179 162 129 132 130 161 129 86 71 43 0 0 0 184 165 125 125 132 136 146 143 144 143 85 0 0 29 182 150 99 84 104 91 109 163 201 254 255 255 0 
255 0 94 175 251 255 255 203 164 135 59 0 0 72 156 130 115 108 107 112 134 139 130 192 163 115 106 83 64 84 140 164 131 131 132 159 178 166 119 108 82 83 88 132 119 150 162 193 205 148 138 144 192 147 148 145 146 139 163 126 152 154 120 133 139 170 137 91 77 48 0 0 0 210 195 146 130 130 133 143 147 154 84 0 0 0 197 217 126 78 79 116 93 112 213 255 255 255 255 0 
255 58 160 173 242 255 255 204 170 135 60 0 0 65 152 132 114 107 108 116 134 141 133 192 162 118 95 75 76 118 144 156 133 150 160 184 188 162 108 92 60 54 67 111 102 182 222 255 255 136 64 75 167 151 156 148 148 132 133 201 255 210 119 134 145 176 133 87 78 51 0 0 0 187 205 160 137 126 130 144 157 132 0 0 0 134 252 196 103 74 87 117 87 144 255 255 255 248 180 0 
255 146 175 167 245 255 255 208 169 136 63 0 0 63 144 122 113 108 108 114 131 141 133 184 176 123 76 49 100 121 129 145 132 175 186 202 182 159 98 77 29 23 52 123 160 244 255 255 181 48 30 89 189 175 176 158 144 128 128 160 255 255 112 131 154 175 130 85 75 48 0 0 0 138 164 163 148 124 120 144 159 38 0 0 46 238 255 176 104 85 102 104 101 227 255 255 239 146 163 0 
255 177 165 159 241 255 255 207 169 142 70 0 0 59 144 123 112 110 108 117 134 143 126 179 216 143 52 47 110 120 131 155 148 178 180 182 164 135 84 62 2 29 125 217 223 255 255 173 129 47 43 116 216 178 169 152 143 127 130 166 229 244 98 81 165 182 130 89 79 49 0 0 0 125 121 145 185 196 171 176 108 0 0 0 203 255 240 164 102 97 91 99 169 255 255 255 146 119 149 0 
255 165 151 146 228 255 255 208 171 144 74 0 0 54 139 121 111 104 105 121 136 138 112 197 255 162 0 70 133 124 131 164 165 195 173 165 141 107 51 22 28 131 233 255 223 196 158 141 155 90 69 119 202 154 151 139 130 127 141 169 221 210 128 0 125 201 138 90 80 50 0 0 0 118 142 255 255 255 255 255 97 0 0 103 255 248 231 168 108 96 77 155 255 255 255 197 120 124 114 0 
255 158 157 153 227 255 255 208 172 146 67 0 0 41 136 125 113 104 101 114 126 125 102 243 255 134 0 94 137 138 138 168 166 179 145 137 124 90 33 68 149 229 255 204 78 123 162 164 173 96 57 90 174 141 150 147 141 130 145 171 210 185 154 0 4 213 150 95 82 49 0 0 0 170 255 255 255 255 255 255 170 0 0 204 252 224 216 164 114 88 108 253 255 255 255 147 129 89 92 0 
255 172 178 173 238 255 255 217 179 148 68 0 0 43 143 139 126 116 112 120 131 133 118 255 255 50 0 110 129 130 144 180 156 147 119 118 106 78 96 186 241 218 134 86 53 132 187 194 169 65 28 86 184 154 157 150 141 128 137 165 207 179 151 80 0 175 166 104 87 42 0 0 24 255 255 255 255 255 183 195 90 0 0 219 231 202 195 156 110 94 188 255 255 255 168 147 94 53 91 0 
255 190 188 181 238 255 255 224 185 155 75 0 0 68 160 152 130 119 121 128 141 139 133 255 255 0 0 109 123 132 150 166 140 140 133 132 121 147 179 248 190 86 64 101 86 167 196 182 133 35 28 97 209 175 161 143 130 103 118 158 201 179 142 132 49 118 173 103 76 11 0 0 255 255 255 255 249 158 133 141 34 0 0 219 224 192 204 170 100 123 255 255 255 172 160 126 57 46 90 0 
255 186 181 170 228 255 255 222 181 153 76 0 0 72 161 150 127 117 110 120 140 131 141 255 255 0 0 122 122 132 146 160 131 139 133 133 170 210 213 156 53 54 91 125 90 148 181 145 116 44 47 104 202 160 163 144 105 75 109 165 208 178 132 115 85 106 140 90 58 60 123 238 255 255 255 199 159 124 128 174 32 0 0 211 231 199 222 184 119 207 255 255 211 131 153 94 52 54 88 0 
255 173 167 165 227 255 255 223 191 160 77 0 0 67 151 139 121 108 103 107 127 112 153 255 251 0 1 117 117 126 131 143 128 140 132 164 208 237 128 53 48 92 94 85 61 131 148 139 129 67 61 96 170 138 136 117 95 76 129 185 207 167 125 100 32 41 32 80 147 193 246 255 255 255 176 134 115 123 168 199 0 0 0 205 214 198 226 199 197 255 255 255 129 132 125 83 54 54 90 0 
255 159 161 165 228 255 255 230 201 167 76 0 0 59 147 133 115 100 95 104 122 99 181 255 235 0 40 120 124 129 150 163 140 146 174 225 232 154 52 78 93 88 78 78 44 115 154 148 156 75 42 88 187 141 122 105 97 122 170 177 180 140 104 92 13 0 14 106 223 248 251 182 175 185 130 105 116 138 172 178 0 0 0 210 211 200 232 244 255 255 255 204 117 120 107 84 57 55 94 0 
255 155 155 163 220 255 255 236 200 159 65 0 0 58 145 127 112 100 96 108 122 107 216 255 217 0 63 109 122 138 160 167 147 192 212 222 154 101 76 92 81 81 70 74 64 133 165 179 166 60 28 84 197 161 140 128 152 147 147 145 162 137 101 72 17 31 52 115 232 188 117 75 129 156 120 112 85 104 155 124 0 0 0 203 211 215 245 255 255 255 252 150 121 102 108 88 61 61 103 0 
255 156 156 161 217 255 255 231 189 148 60 0 0 64 152 133 116 101 102 112 123 108 231 255 181 0 83 107 96 126 138 159 172 210 203 138 111 124 114 102 45 49 70 87 62 144 185 178 149 45 25 75 170 133 142 155 147 127 108 131 161 129 114 113 74 89 103 111 125 91 80 51 109 162 136 72 15 22 122 19 0 0 15 206 211 216 255 255 255 255 153 149 107 92 111 89 64 66 104 0 
255 152 154 163 225 255 255 226 177 142 60 0 0 63 154 133 115 104 105 111 120 101 234 255 153 0 80 76 68 108 160 202 191 207 132 108 129 154 100 75 51 64 67 69 76 152 163 149 133 31 13 72 171 145 135 128 125 97 75 109 173 159 155 168 150 141 106 93 86 59 58 55 127 184 115 24 0 15 116 0 0 0 106 199 213 248 255 255 255 210 124 142 87 87 109 84 60 62 99 0 
255 153 157 167 234 255 255 222 179 147 70 0 0 58 146 124 107 97 103 109 112 97 254 255 159 12 64 69 58 130 208 226 194 141 106 137 167 140 60 61 59 82 80 96 66 103 120 128 116 30 26 95 186 160 153 112 98 70 72 124 213 203 218 225 133 81 64 65 71 74 90 78 139 183 66 0 0 85 142 0 0 0 147 193 227 255 255 255 255 142 122 117 72 83 108 85 57 60 97 0 
255 161 171 184 246 255 255 221 183 153 76 0 0 50 145 123 102 98 103 107 107 95 255 255 180 42 85 87 66 149 223 215 127 122 136 174 154 99 59 81 69 48 30 10 0 51 84 59 78 41 32 91 179 146 101 68 80 74 121 190 255 255 238 191 86 46 45 68 100 104 105 82 143 147 0 0 0 107 128 0 0 35 152 200 255 255 255 255 199 124 113 100 70 83 107 84 57 59 92 0 
255 167 174 192 251 255 255 226 187 157 76 0 0 41 144 127 110 108 111 111 107 94 255 255 182 37 70 92 71 111 192 139 103 147 168 143 106 89 81 106 44 20 0 0 0 0 124 168 58 0 0 0 33 0 0 0 30 142 174 255 255 255 201 161 65 56 83 100 110 99 93 67 79 1 0 0 0 194 76 0 0 118 134 193 255 255 255 255 154 128 100 98 78 88 111 83 53 57 91 0 
255 168 172 192 247 255 255 225 185 154 75 0 0 46 152 133 114 112 113 111 114 94 255 255 194 18 0 22 24 72 127 123 131 174 139 107 109 119 104 66 24 0 0 0 0 13 119 175 19 0 0 0 0 0 0 0 133 255 255 255 255 231 160 131 70 78 87 89 100 77 0 0 0 0 0 0 230 255 0 0 0 163 129 195 255 255 255 255 152 117 89 103 81 90 109 87 57 56 92 0 
255 168 165 187 240 255 255 220 177 151 73 0 0 52 156 134 114 111 109 107 111 91 209 255 220 11 0 26 54 43 129 163 174 160 104 114 144 144 74 53 2 0 0 0 0 28 155 136 0 0 0 0 0 0 122 255 255 255 255 252 251 179 136 133 65 62 75 74 38 0 0 0 0 0 67 255 255 17 0 0 98 157 144 245 255 255 255 231 162 101 84 105 82 93 111 90 59 60 96 0 
255 166 158 181 234 255 255 213 172 150 73 0 0 49 152 132 112 106 106 104 113 99 147 255 255 18 0 75 109 80 154 197 162 122 104 136 153 136 67 24 0 0 0 0 0 44 186 128 20 0 14 21 151 255 255 255 255 255 210 182 187 161 138 133 72 64 9 0 0 0 0 0 96 255 255 255 0 0 0 16 147 140 154 255 255 255 255 234 150 90 87 106 83 92 113 92 62 63 94 0 
255 162 159 176 228 255 255 215 175 153 75 0 0 45 147 128 113 109 104 98 114 116 115 255 255 50 28 75 81 69 165 179 106 106 122 146 115 96 26 0 0 0 0 0 0 136 229 167 95 42 0 49 255 255 255 255 255 211 137 140 178 168 150 144 50 0 0 0 0 0 62 218 255 255 204 0 0 0 64 154 137 138 172 255 255 255 255 233 130 87 87 105 82 89 110 90 59 61 95 0 
255 157 156 163 219 255 255 221 182 158 83 0 0 39 147 130 112 105 103 102 124 134 109 255 255 89 57 44 40 74 155 139 93 139 142 142 109 0 0 0 0 0 0 3 50 181 184 68 137 124 17 182 255 255 255 255 214 128 119 144 187 186 163 140 0 0 0 0 0 97 207 240 255 97 0 0 0 56 169 135 125 146 215 255 255 255 255 216 113 87 86 105 79 88 111 94 62 59 92 0 
255 155 148 150 206 255 255 224 182 160 84 0 0 31 144 129 114 106 104 108 131 145 124 180 255 174 48 18 0 97 134 115 133 162 130 126 61 0 0 0 0 0 61 89 67 198 134 121 180 93 130 255 255 255 255 209 114 104 121 149 219 207 171 147 0 0 0 47 161 144 180 86 0 0 0 0 34 172 147 120 129 170 255 255 255 255 255 191 106 83 83 104 80 92 116 96 60 58 94 0 
255 149 144 141 197 255 255 224 185 162 84 0 0 30 144 132 117 107 106 114 133 147 130 173 219 255 106 3 0 74 104 132 143 141 118 73 0 0 0 59 0 0 124 107 17 143 121 168 189 120 192 255 255 255 212 94 88 105 117 152 250 238 192 169 74 0 0 72 76 127 133 0 0 0 0 55 173 156 128 113 137 212 255 255 255 255 255 172 107 85 85 101 80 93 117 92 59 57 93 0 
255 149 142 136 193 255 255 227 185 160 81 0 0 33 154 144 126 113 110 113 134 149 134 170 229 255 158 0 0 66 102 163 145 126 18 0 0 0 0 63 11 33 150 144 38 100 117 186 249 247 255 255 255 255 113 76 110 107 117 190 255 255 201 183 88 0 0 0 15 117 138 0 0 0 101 163 164 140 117 117 157 255 255 255 255 255 255 165 107 86 85 103 80 91 113 88 59 59 94 0 
255 151 148 139 199 255 255 232 185 156 79 0 0 34 158 150 130 116 113 118 140 155 139 174 201 255 147 0 0 81 142 140 100 71 0 0 0 0 24 77 35 58 82 160 55 70 204 255 255 255 255 255 255 192 110 99 131 123 142 229 255 255 187 176 96 0 0 0 5 156 182 0 0 103 166 155 148 123 106 128 192 255 255 255 255 255 220 158 103 80 80 103 83 88 109 84 59 56 88 0 
255 152 144 141 205 255 255 235 189 160 81 0 0 34 155 148 131 117 111 112 162 176 143 182 165 255 128 0 0 136 156 122 0 0 0 0 89 61 74 82 35 64 112 135 20 54 255 255 255 255 213 225 255 144 97 101 138 130 180 255 255 222 174 175 107 11 0 0 0 158 229 0 0 143 166 154 142 110 106 142 237 255 255 255 255 244 199 138 79 61 67 94 78 86 105 82 52 52 84 0 
255 149 141 135 194 255 255 236 191 159 84 0 0 42 160 149 128 114 109 113 148 168 132 187 160 186 139 0 76 175 150 46 0 0 0 73 146 100 103 84 48 56 100 118 83 160 255 255 255 227 77 159 253 115 81 120 144 159 212 243 255 212 173 167 96 22 0 0 0 137 254 0 0 154 161 146 135 103 114 168 255 255 255 255 255 234 227 166 91 55 47 69 56 67 93 74 46 49 84 0 
255 148 143 136 195 255 255 241 191 157 79 0 0 35 157 147 124 112 106 114 144 152 101 175 160 123 99 0 91 168 59 0 0 37 76 125 186 110 73 80 86 69 65 2 121 255 255 255 255 148 40 123 222 86 96 140 180 193 197 217 238 197 161 153 85 34 0 0 0 105 255 59 0 133 158 135 113 101 124 209 255 255 255 255 255 224 246 204 137 97 69 78 51 51 68 56 37 49 90 0 
255 147 149 145 201 255 255 242 193 160 80 0 0 28 143 135 120 110 107 112 141 148 125 205 190 94 71 43 91 97 0 0 0 124 112 154 185 98 39 75 102 89 58 100 191 255 255 255 232 125 18 4 104 35 125 183 210 174 162 195 226 182 147 142 78 31 0 0 0 48 255 134 0 126 165 128 104 105 140 255 255 255 224 255 236 206 229 198 139 104 95 110 82 78 87 57 28 34 76 0 
255 157 157 151 201 255 255 240 192 160 81 0 0 33 146 140 121 104 99 106 136 147 135 248 193 0 0 135 90 0 0 0 127 181 101 118 176 73 8 116 113 71 82 223 255 255 255 248 204 101 0 0 8 0 0 59 143 142 138 181 225 175 139 124 4 0 0 0 0 13 255 196 0 107 156 114 93 115 168 255 255 255 207 248 216 203 210 169 110 78 79 111 101 109 129 95 50 36 55 0 
255 167 161 145 190 255 255 239 194 160 82 0 0 34 151 146 122 99 98 105 124 141 172 255 225 0 0 140 40 0 0 87 117 188 80 113 180 90 30 95 98 51 134 255 255 255 255 194 118 0 0 0 107 92 3 0 32 89 107 169 239 185 113 3 0 0 0 0 0 36 244 238 0 55 137 94 85 124 205 255 255 255 210 224 205 201 208 162 98 67 64 98 90 112 140 108 70 57 74 0 
255 159 148 125 175 255 255 244 194 157 83 0 0 26 144 142 117 93 91 98 170 224 224 255 216 64 54 141 5 0 111 177 105 123 81 113 141 184 74 56 29 76 242 255 255 255 247 42 0 0 0 0 0 0 38 177 173 141 117 176 255 203 17 0 0 0 0 0 0 29 225 255 0 22 126 77 92 129 240 255 255 230 202 194 205 207 214 169 109 75 68 97 82 93 114 82 51 57 83 0 
255 138 124 102 160 255 255 249 199 158 77 0 0 20 139 133 109 90 82 111 255 255 245 248 98 0 0 0 21 62 181 177 105 40 123 136 97 138 102 64 71 193 255 255 255 251 93 0 0 0 0 0 171 149 15 171 255 225 182 222 255 111 0 0 0 0 0 0 0 0 201 255 27 8 115 69 102 152 255 255 255 218 178 175 204 206 217 170 107 79 74 99 76 79 90 50 13 20 64 0 
255 145 129 103 162 255 255 255 200 161 79 0 0 32 163 150 121 107 79 53 203 255 181 105 0 0 0 0 121 114 142 179 65 4 123 159 109 94 40 7 130 255 255 255 207 129 0 0 0 0 88 175 255 255 255 238 237 160 195 255 255 28 0 0 98 237 49 5 31 48 207 255 61 3 93 75 116 185 255 255 255 201 149 172 207 208 214 167 104 78 72 91 64 66 75 36 2 18 94 0 
255 160 145 116 177 255 255 255 200 166 83 0 0 52 180 168 139 59 48 114 253 255 48 0 0 0 13 140 135 143 206 255 62 13 114 128 100 85 49 50 216 255 255 255 73 0 0 2 145 195 255 255 255 255 225 201 255 172 202 255 255 17 0 179 255 223 0 0 76 93 210 255 95 0 61 75 131 228 255 255 234 181 120 171 212 221 223 173 110 79 70 80 50 54 69 54 69 129 227 0 
255 154 132 110 178 255 255 255 204 170 87 0 0 54 174 160 144 96 132 230 255 163 0 0 0 118 159 87 123 188 243 255 108 38 114 127 106 72 74 193 255 255 255 135 0 0 11 200 255 222 225 244 255 255 49 55 190 183 209 255 255 79 36 252 179 33 0 0 84 106 194 255 124 0 32 79 152 255 255 255 207 168 112 173 210 221 224 169 110 73 57 68 39 56 118 158 195 242 255 0 
255 128 109 88 162 255 255 255 204 169 86 0 0 36 157 142 133 187 210 233 82 0 0 0 145 255 126 1 139 204 183 208 76 7 72 138 140 98 135 255 255 255 168 0 0 0 213 255 236 161 182 220 255 164 104 82 122 154 187 255 255 137 92 178 60 0 0 30 47 84 172 255 149 0 19 85 170 255 255 255 202 147 109 181 220 214 211 158 98 61 52 65 52 130 239 255 251 218 200 0 
255 104 91 81 155 255 255 255 204 164 78 0 0 24 149 150 151 173 200 113 0 0 0 227 255 151 0 0 154 209 214 198 73 0 49 137 139 148 227 255 255 255 0 0 0 159 255 252 230 152 149 228 255 255 212 109 98 135 157 255 255 158 62 119 61 56 86 37 0 80 150 255 164 0 15 92 204 255 255 243 197 131 114 185 224 213 210 158 93 54 46 80 132 244 255 255 164 103 113 0 
255 106 104 92 166 255 255 255 202 160 75 0 0 21 166 187 191 151 34 0 0 31 125 255 255 79 0 0 111 191 134 65 111 112 76 119 130 212 255 255 255 2 0 0 58 242 245 226 209 135 125 174 255 210 156 97 108 120 138 255 255 172 33 77 29 34 35 0 0 80 132 255 193 0 15 108 251 255 255 227 182 124 118 187 221 208 208 164 92 52 50 136 218 255 255 163 67 63 118 0 
255 106 111 100 176 255 255 255 197 155 76 0 0 27 159 164 128 62 0 0 0 43 152 255 172 0 0 33 120 104 50 0 67 235 73 54 142 255 255 255 135 0 0 0 211 212 224 210 184 103 84 122 202 147 107 77 104 99 129 255 255 193 11 60 13 14 0 0 0 73 109 248 235 0 17 150 255 255 255 215 156 122 116 180 210 203 204 160 90 49 82 214 255 255 175 96 64 87 145 0 
255 124 120 101 179 255 255 254 188 150 75 0 0 48 175 173 126 16 7 75 107 119 142 255 172 0 0 83 110 139 105 82 212 255 106 12 192 255 255 255 0 0 0 207 208 193 218 209 176 87 62 95 170 119 80 54 80 76 111 254 255 212 0 54 13 3 0 0 0 80 88 224 255 0 0 196 255 255 255 200 135 124 117 176 208 200 205 158 85 58 146 255 255 168 122 105 92 104 141 0 
255 149 136 102 176 255 255 254 188 153 82 0 0 44 224 198 137 27 50 107 62 99 157 255 230 0 37 83 92 186 225 239 255 255 16 0 218 255 255 66 0 0 33 245 181 184 208 208 182 82 49 79 154 112 82 54 74 75 104 238 255 248 4 42 9 0 0 0 0 110 77 199 255 0 0 224 255 255 238 172 119 129 120 181 216 208 207 155 83 99 220 255 207 110 131 131 107 98 114 0 
255 156 132 93 171 255 255 255 198 168 95 0 0 33 202 165 89 0 17 111 34 83 173 255 204 0 0 80 96 210 255 255 255 132 0 8 237 255 226 0 0 0 179 215 186 190 200 198 175 72 41 75 156 107 73 44 95 117 125 231 255 255 11 25 11 0 0 0 4 124 53 172 255 0 0 255 255 255 208 148 113 122 117 182 217 215 212 152 95 162 255 255 131 108 155 139 91 74 99 0 
255 154 135 102 189 255 255 255 200 173 100 0 0 71 188 119 11 0 96 108 40 108 133 202 178 0 0 103 112 188 199 180 72 0 0 255 255 255 19 0 0 107 208 194 191 191 202 197 175 72 45 92 176 120 72 47 95 125 124 208 255 255 0 0 9 0 0 0 59 123 30 140 255 53 0 255 255 255 188 134 117 124 117 182 214 210 209 145 122 216 255 212 99 123 160 121 66 61 103 0 
255 149 139 134 240 255 255 255 194 169 98 0 0 34 162 110 36 0 112 96 65 131 97 220 238 54 23 124 142 103 182 106 0 0 160 255 255 144 0 0 0 189 212 178 190 193 200 202 180 83 57 106 192 143 111 81 89 68 62 150 255 230 0 0 0 0 0 0 116 121 27 116 255 104 0 255 255 233 171 124 121 127 121 180 209 204 202 144 155 255 255 154 106 135 148 104 66 71 107 0 
255 144 141 160 255 255 255 250 192 171 101 0 0 0 116 129 48 0 66 76 35 153 107 247 252 125 8 95 255 131 139 186 157 244 255 255 248 0 0 0 49 193 219 172 179 186 199 196 176 79 57 107 199 156 146 131 154 155 184 255 255 253 16 23 0 0 0 0 159 131 36 95 255 159 0 255 255 192 154 125 127 128 122 181 210 202 198 152 188 255 218 138 119 132 132 101 73 72 103 0 
255 147 137 153 255 255 255 232 191 178 105 0 0 0 164 198 79 0 113 74 55 85 82 245 195 131 65 80 232 117 127 255 255 255 255 255 8 0 0 70 85 177 221 153 166 186 202 199 171 70 52 110 199 161 149 145 173 255 255 255 255 255 51 41 0 0 0 77 167 128 33 66 255 230 49 255 255 167 141 125 129 127 119 183 214 206 198 164 212 255 180 138 121 115 117 98 71 67 105 0 
255 134 129 145 255 255 255 220 194 182 108 0 0 0 191 193 72 12 136 106 65 53 107 191 128 98 125 91 127 46 161 255 255 255 103 0 0 0 0 119 50 140 202 132 149 181 201 202 174 66 45 101 184 147 136 130 166 255 255 255 255 145 25 5 0 0 0 111 162 101 12 39 255 255 93 255 249 156 135 126 129 125 118 181 213 203 191 174 235 255 163 144 116 101 114 99 70 68 106 0 
255 131 131 152 255 255 255 224 201 186 110 0 0 29 193 184 8 0 119 37 22 139 188 196 124 53 141 57 81 200 255 255 255 59 0 0 0 0 85 117 52 105 178 111 129 181 195 193 170 66 41 69 148 117 118 107 129 152 198 139 135 24 0 0 0 0 30 121 157 90 16 21 255 255 124 249 202 155 131 125 129 129 123 185 215 200 189 179 250 255 158 146 104 95 118 103 76 72 104 0 
255 135 144 172 255 255 255 235 205 185 104 0 0 52 212 160 0 0 60 11 73 185 245 255 175 127 106 65 104 255 255 255 102 0 0 0 0 118 73 125 59 82 166 99 121 188 188 182 169 83 43 25 69 50 63 42 31 19 20 0 0 0 0 0 0 0 77 118 147 81 31 22 255 255 165 220 178 152 132 131 129 132 123 185 218 203 188 192 255 255 156 139 90 96 122 103 78 73 106 0 
255 155 158 191 255 255 255 237 204 178 97 0 0 56 189 124 37 0 40 48 124 208 251 233 176 132 134 119 179 255 255 123 0 0 0 0 92 123 57 120 58 63 146 97 121 187 176 164 161 88 72 86 131 120 124 128 161 176 207 164 123 117 0 0 0 0 69 116 140 79 41 30 245 255 203 193 166 151 132 139 138 134 124 186 216 204 187 206 255 255 149 122 87 100 126 107 72 64 96 0 
255 162 159 198 255 255 255 230 197 173 108 0 0 33 127 118 8 0 80 103 172 252 255 153 99 139 142 204 255 255 169 47 0 0 0 13 147 132 79 121 63 64 122 89 107 178 164 160 157 76 64 103 209 217 215 200 227 249 248 246 245 181 0 0 0 55 66 117 138 94 50 44 231 255 234 155 153 145 136 143 140 136 127 184 215 201 179 214 255 255 132 111 93 106 129 98 55 45 76 0 
255 148 158 217 255 255 255 228 199 169 97 0 0 0 150 70 0 29 64 93 189 255 255 186 126 134 177 199 235 227 217 0 0 0 0 127 144 140 98 108 65 56 103 84 83 170 162 166 163 79 55 91 178 165 186 170 148 111 87 105 111 0 0 0 46 79 71 124 154 97 51 41 215 255 238 127 143 139 137 146 142 134 127 181 208 189 168 214 255 255 114 110 101 106 114 81 42 44 88 0 
255 146 180 255 255 255 255 234 199 163 95 0 0 16 191 12 0 38 7 78 156 216 255 169 213 114 159 128 98 198 147 0 0 0 89 142 128 127 85 90 55 38 68 76 57 156 170 175 175 91 65 102 186 176 209 230 238 203 172 184 95 0 0 13 100 80 64 121 171 98 56 36 205 255 240 112 141 137 136 141 138 130 119 178 203 185 163 222 255 253 100 107 91 93 103 79 51 62 106 0 
255 153 200 255 255 255 255 249 201 159 95 0 0 17 145 0 32 62 10 102 138 198 167 88 191 104 137 151 75 124 19 0 0 60 149 138 123 125 70 67 49 48 54 80 46 112 139 157 171 94 69 121 217 217 248 255 255 255 224 176 19 0 0 117 114 76 48 125 190 90 54 40 199 255 248 106 144 134 132 133 129 125 111 169 195 183 172 255 255 246 82 95 82 87 100 82 56 58 90 0 
255 156 190 255 255 255 255 255 203 163 102 0 0 4 99 0 40 83 46 124 109 228 156 27 133 119 146 215 148 48 0 0 0 153 158 151 130 136 76 70 56 59 68 100 78 124 101 116 122 53 36 101 213 201 226 216 197 153 124 59 0 0 83 155 113 61 44 140 195 83 60 43 201 255 242 76 124 116 125 130 128 124 106 161 188 178 184 255 255 228 70 90 82 88 100 69 12 0 0 0 
255 151 168 240 255 255 255 250 196 164 96 0 0 87 168 0 48 93 46 103 78 235 255 99 151 103 106 186 178 125 56 0 80 162 175 150 124 132 76 73 56 70 80 103 83 172 177 187 164 63 25 83 189 172 176 159 142 98 82 35 0 0 144 156 95 48 42 144 193 70 61 52 215 255 190 0 57 75 97 116 125 124 105 162 189 173 203 255 255 184 57 90 80 73 57 0 0 0 0 0 
255 155 159 214 252 255 255 243 189 159 87 0 0 101 125 0 80 111 55 103 85 225 255 151 109 146 104 92 107 39 192 158 106 163 183 147 114 126 63 71 52 68 78 89 59 168 255 255 255 221 157 170 238 200 186 142 122 112 164 230 255 229 229 147 64 30 43 151 181 64 59 49 216 255 151 0 27 46 48 57 72 86 83 152 186 165 230 255 255 130 52 91 63 34 0 0 0 0 0 0 
255 200 181 205 221 255 255 239 187 162 122 4 0 37 0 0 35 126 65 143 150 175 250 165 122 203 162 70 61 19 88 217 116 153 174 125 111 133 58 79 53 67 82 88 55 167 255 255 255 211 167 189 254 207 177 124 111 133 209 255 255 255 255 255 126 22 35 153 167 50 43 40 216 255 150 49 130 118 79 51 31 23 19 90 139 130 224 255 255 87 60 97 44 0 0 0 0 0 105 0 
255 255 229 212 193 255 255 254 190 168 122 0 0 0 0 0 54 174 58 151 221 119 128 169 119 161 162 40 115 139 156 141 32 108 149 112 114 131 52 87 66 67 84 117 73 173 255 255 224 86 58 113 205 171 150 121 142 180 228 251 255 255 255 255 255 165 58 137 147 32 31 30 216 255 167 127 194 187 174 145 111 69 29 79 138 114 189 255 255 83 79 76 0 0 0 0 0 147 237 0 
255 255 255 215 174 255 255 255 198 169 110 23 0 0 0 0 120 227 191 165 202 98 103 196 105 25 6 63 216 222 138 85 0 119 90 109 133 136 50 90 81 67 90 140 98 165 255 255 198 81 72 132 220 170 156 156 192 213 227 223 223 175 150 194 253 255 197 129 117 19 32 31 230 255 178 145 166 168 184 191 184 167 135 182 246 215 255 255 255 105 90 0 0 0 0 0 143 188 171 0 
255 236 241 180 136 255 255 255 213 175 110 65 36 0 0 0 155 168 120 96 114 26 69 222 107 0 8 118 191 210 127 55 118 183 61 81 155 143 56 95 87 68 96 175 138 147 255 255 205 97 84 138 221 171 169 182 207 196 186 187 206 176 148 143 82 126 240 168 78 21 38 53 250 255 171 132 131 142 155 164 167 173 175 247 255 255 255 255 255 110 48 0 0 0 25 190 175 143 133 0 
255 216 221 136 73 255 255 255 218 178 117 45 0 0 0 65 162 139 24 45 49 24 70 137 161 37 71 163 165 159 141 97 154 204 75 26 165 133 40 80 81 51 77 199 181 134 245 255 221 109 98 140 206 166 173 189 196 168 158 175 204 181 156 152 83 60 98 163 47 5 38 64 255 255 156 122 116 132 142 142 143 142 142 227 255 255 255 255 255 87 0 0 0 0 234 190 135 106 104 0 
255 241 243 118 0 211 255 255 213 170 111 19 0 0 0 106 134 102 64 144 165 79 61 201 165 114 157 170 146 157 157 119 11 158 108 0 146 141 37 70 77 47 63 203 187 97 195 255 230 119 91 125 204 171 180 178 172 151 148 179 220 195 166 161 89 62 67 112 54 0 22 77 255 255 147 119 115 128 133 133 132 125 116 190 255 255 255 255 210 56 0 0 0 109 225 143 82 50 96 0 
255 255 255 89 0 145 255 255 209 169 113 0 0 0 0 129 127 77 81 209 197 38 63 205 167 115 153 199 126 158 207 113 0 142 170 0 129 171 48 73 75 43 86 219 188 63 167 255 243 107 70 112 198 171 180 169 162 146 148 185 229 207 172 165 96 74 75 91 84 0 0 107 255 255 148 121 119 127 124 122 119 112 96 213 255 255 255 255 152 0 0 0 0 159 182 110 33 29 116 0 
255 255 255 75 0 104 255 255 211 170 113 14 0 0 0 124 101 58 143 255 175 0 94 175 133 68 119 171 89 145 254 151 0 191 244 0 117 179 50 65 71 48 122 255 204 66 174 255 253 95 71 112 192 161 172 159 154 147 149 183 234 206 174 166 100 78 75 87 97 0 0 110 255 255 144 118 119 123 121 119 112 102 103 255 255 255 255 255 106 0 0 0 48 172 158 70 20 74 129 0 
255 255 255 98 0 103 255 255 209 166 112 0 0 0 0 105 82 102 195 253 115 0 112 167 131 67 109 160 117 156 255 151 120 243 181 0 99 148 41 62 60 84 199 255 190 75 175 255 248 99 75 107 190 165 170 153 151 151 152 184 232 207 177 167 102 78 71 78 95 0 0 46 255 255 130 105 111 116 122 121 115 102 131 255 255 255 255 213 38 0 0 0 103 152 121 47 48 96 93 0 
255 255 255 132 0 100 255 255 196 150 99 0 0 0 13 86 106 141 164 204 44 0 130 157 124 140 140 96 160 213 255 71 35 174 92 0 150 173 69 64 59 122 243 255 134 34 171 255 236 95 71 104 188 163 168 152 152 148 153 180 228 208 178 170 99 75 69 78 92 43 0 0 255 255 124 97 107 115 128 130 121 109 162 255 255 255 236 173 0 0 0 17 121 133 81 45 73 73 54 0 
255 255 255 151 0 80 255 255 203 160 107 1 0 0 20 88 119 137 133 100 49 22 128 154 131 165 157 125 139 223 188 40 0 0 0 8 173 196 103 48 68 165 255 255 57 18 206 255 233 94 73 107 186 158 163 151 151 146 150 177 228 207 174 169 97 74 70 78 91 71 0 0 255 255 125 101 113 121 135 132 119 118 176 255 255 224 225 127 0 0 0 62 96 87 62 66 77 44 61 0 
255 255 255 173 0 65 255 255 207 169 119 22 0 0 9 113 154 133 99 99 97 46 111 174 146 156 174 140 209 255 88 63 85 52 0 0 50 51 10 7 87 212 255 210 3 23 250 255 224 99 72 102 187 159 168 155 154 147 151 181 228 206 172 165 95 72 72 80 90 77 0 0 255 255 120 106 130 137 146 135 123 133 164 255 255 205 236 92 0 0 0 56 51 51 77 93 64 35 82 0 
255 255 255 203 0 63 255 255 208 163 108 11 0 0 24 120 144 116 99 117 122 94 116 182 161 147 158 143 138 175 84 0 153 208 111 96 102 37 0 9 123 251 241 141 0 42 255 255 205 96 69 102 188 160 169 158 160 151 151 177 223 200 169 164 96 72 74 87 93 80 38 0 104 134 46 67 115 137 149 144 142 165 177 208 225 228 254 47 0 0 0 44 37 61 119 114 40 39 73 0 
255 255 255 251 0 47 255 255 211 165 113 0 0 0 3 98 119 76 88 128 138 111 95 149 137 138 164 233 136 30 16 35 101 104 0 40 126 95 52 110 194 255 199 58 0 104 255 255 187 88 65 102 192 160 161 156 160 151 151 179 223 202 171 164 94 71 76 90 98 85 75 0 0 0 0 0 21 51 80 108 147 189 170 196 255 255 255 0 0 0 0 45 51 91 156 98 40 52 34 0 
255 255 255 255 13 26 255 255 216 172 122 0 0 0 0 77 99 94 133 126 117 129 78 145 139 109 142 255 253 118 145 123 76 37 0 16 122 101 89 189 254 249 115 0 0 208 255 241 171 81 57 96 190 157 153 147 149 141 143 176 225 206 173 159 94 75 79 91 95 81 85 0 0 0 50 12 0 0 0 0 48 146 183 221 255 255 227 0 0 0 5 85 80 126 138 80 62 44 0 0 
255 255 255 255 36 18 255 255 224 178 123 0 0 0 0 78 114 125 127 102 116 130 91 160 156 113 95 148 213 196 227 226 62 0 1 88 120 119 145 248 255 185 0 0 22 255 255 204 165 75 55 100 193 156 155 146 145 134 140 173 223 199 163 157 95 76 81 91 92 80 82 0 0 56 197 147 95 28 0 0 0 149 251 255 255 255 71 0 0 0 66 134 116 121 93 93 73 0 0 0 
255 255 255 255 61 7 255 255 234 183 122 0 0 0 0 93 116 119 99 92 122 134 91 149 138 116 124 89 111 160 153 154 36 33 94 103 127 160 208 255 221 36 0 0 194 255 255 189 167 76 58 109 199 162 159 148 153 136 142 174 224 197 161 154 94 75 80 91 93 79 78 39 0 10 196 169 161 143 106 52 66 255 255 255 255 223 0 0 0 47 143 158 109 54 90 131 75 0 0 0 
255 255 255 255 75 0 255 255 240 184 122 0 0 0 0 104 111 104 103 96 139 134 124 163 151 151 157 150 135 130 67 20 0 32 117 117 157 226 255 231 57 0 0 145 255 255 210 185 164 72 59 110 193 162 162 150 152 141 143 178 221 198 163 157 87 67 77 89 96 84 79 61 0 0 131 135 129 145 158 167 219 255 255 255 115 0 0 0 12 154 172 153 49 32 147 156 54 0 25 0 
255 255 255 255 79 0 226 255 241 184 122 0 0 0 0 116 110 116 126 108 168 167 159 226 152 164 160 153 164 232 131 0 0 27 119 133 181 220 158 75 0 0 123 255 251 196 191 182 159 72 59 112 201 171 168 156 148 141 142 180 227 198 165 157 88 70 73 86 95 86 82 71 27 0 54 129 116 133 157 196 255 255 255 109 0 0 0 21 189 201 164 86 4 100 210 154 0 0 26 0 
255 200 255 255 105 1 203 255 250 188 125 0 0 0 0 127 131 138 135 110 168 162 154 255 138 157 126 140 158 207 241 42 0 79 128 141 184 209 141 108 101 189 255 255 137 160 185 175 153 71 59 111 203 173 167 152 148 139 146 177 227 200 169 155 91 79 82 92 98 86 82 70 76 0 0 133 134 149 175 209 249 255 207 0 0 0 104 226 226 181 91 9 47 191 233 99 0 0 25 0 
255 178 255 255 184 40 196 255 255 192 109 0 0 0 49 125 127 127 138 107 158 131 98 255 132 123 172 86 159 140 178 29 0 98 143 187 255 255 240 244 251 242 179 138 92 153 186 178 157 70 59 106 197 167 161 147 152 141 153 183 231 204 165 156 90 74 79 90 97 87 82 69 102 0 0 126 153 167 187 208 211 173 85 0 11 177 255 238 169 94 1 36 153 254 188 18 0 0 41 0 
255 193 255 255 255 82 169 255 255 186 98 0 0 0 89 125 136 130 124 117 168 155 110 255 155 44 171 61 142 106 118 79 0 98 178 255 255 255 255 217 159 117 90 105 84 153 189 182 157 74 60 105 198 168 165 152 155 148 156 184 237 212 170 161 94 74 75 87 96 93 86 68 116 20 0 90 164 167 180 193 166 142 124 180 244 255 237 199 129 30 24 160 246 231 82 0 0 0 109 0 
255 186 255 255 255 47 110 255 255 182 86 0 0 0 91 131 153 149 130 155 183 157 107 255 149 82 130 74 89 117 61 148 121 151 228 255 255 255 160 126 90 82 74 95 84 153 186 184 156 69 58 105 201 174 165 147 148 144 150 183 229 209 176 164 98 71 75 93 105 98 89 69 126 82 0 31 160 154 177 184 160 151 176 255 253 174 160 156 98 57 125 249 255 127 0 0 0 61 206 0 
161 0 0 0 0 0 0 0 0 0 0 0 0 0 0 0 0 0 0 0 0 0 0 4 0 0 0 0 0 0 0 0 0 0 0 0 0 0 0 0 0 0 0 0 0 0 0 0 0 0 0 0 0 0 0 0 0 0 0 0 0 0 0 0 0 0 0 0 0 0 0 0 0 0 0 0 0 0 0 0 0 0 0 0 0 0 0 0 0 0 0 0 0 0 0 0 0 0 0 0 
