P2
40 40
255
90 255 255 255 255 255 255 255 255 255 255 255 255 255 255 255 255 255 255 255 255 255 255 255 255 255 255 255 255 255 255 255 255 255 255 255 255 255 255 255 
103 255 255 255 236 188 130 60 10 0 0 18 63 76 70 81 93 188 213 222 230 251 250 114 37 73 68 46 30 0 0 0 35 96 112 142 156 142 83 13 
0 255 255 245 208 143 74 0 0 0 0 0 2 18 75 91 71 59 82 115 102 82 60 0 0 93 86 12 0 0 0 0 90 201 206 195 193 150 59 15 
0 255 255 252 234 185 111 6 7 31 41 108 208 238 255 235 182 77 0 0 24 18 91 77 146 255 255 249 183 214 215 229 255 255 255 234 164 114 45 0 
0 255 220 232 225 200 159 131 154 187 255 254 247 255 255 243 182 198 90 141 161 152 255 255 89 202 228 107 169 251 255 255 255 255 255 204 183 103 40 0 
0 255 190 221 223 166 137 136 198 210 251 255 166 187 110 133 152 208 142 201 255 232 255 255 156 180 122 87 124 155 149 120 255 255 255 208 197 159 80 26 
0 255 222 246 235 165 134 127 113 109 115 152 159 255 249 209 249 237 122 248 255 255 255 214 255 255 255 176 163 155 62 142 255 255 225 186 163 144 86 63 
0 255 247 202 194 158 145 145 73 59 39 83 42 199 255 255 255 135 99 255 255 255 187 255 255 255 255 183 68 52 93 216 255 255 231 162 155 117 63 20 
0 255 227 195 173 149 153 110 83 0 0 48 132 255 255 255 255 153 176 255 255 222 177 255 255 255 225 119 55 109 124 170 240 252 208 167 152 102 46 0 
0 255 179 184 159 153 123 81 9 0 0 141 255 255 255 255 255 124 133 255 231 225 245 255 255 209 86 119 154 159 153 185 240 236 178 140 124 99 38 19 
0 255 163 180 158 156 141 86 69 31 35 255 255 255 255 255 191 0 46 224 221 207 255 255 255 149 92 82 132 126 186 255 255 255 226 180 142 102 48 23 
0 255 177 187 166 143 174 135 138 112 131 255 255 255 255 255 166 0 37 196 212 179 255 255 255 160 85 115 140 93 127 255 255 255 232 157 131 75 23 6 
0 255 156 191 176 162 192 138 115 29 77 255 255 255 244 240 125 0 14 179 205 143 255 255 255 151 101 123 131 104 57 212 255 255 197 128 95 64 27 0 
0 255 165 197 205 202 210 145 59 0 67 255 255 255 225 243 124 0 6 171 198 116 255 255 255 138 106 111 132 77 7 138 206 217 175 112 81 61 28 0 
0 255 116 164 200 188 223 139 52 0 144 255 255 248 235 243 129 0 12 199 231 128 255 255 255 133 118 116 105 58 0 89 217 186 144 75 74 51 22 0 
0 255 127 141 175 155 160 112 17 10 170 255 255 240 255 239 116 0 13 224 249 117 250 255 255 158 113 96 95 57 0 0 231 213 155 60 38 28 17 37 
0 255 117 95 159 124 89 37 0 0 193 255 239 231 255 230 107 0 21 241 239 74 221 255 255 181 108 86 89 42 0 20 244 226 128 59 26 33 24 53 
0 255 97 84 139 116 79 0 0 0 217 255 244 217 255 209 81 0 25 245 238 55 217 255 255 189 103 86 115 14 0 37 255 202 106 31 7 22 49 67 
0 255 155 151 194 150 89 67 0 0 207 255 255 234 249 200 74 0 21 255 238 43 230 255 255 169 99 72 121 0 0 96 235 160 87 25 32 49 51 37 
0 255 255 252 255 176 89 80 63 29 190 255 255 250 212 204 96 0 46 255 255 62 249 255 255 149 104 81 104 0 0 145 235 156 78 44 70 104 69 35 
0 255 228 224 212 106 61 71 78 45 158 255 255 255 214 226 135 0 45 253 215 54 255 255 246 153 119 122 40 0 0 119 206 161 109 85 93 119 64 32 
0 255 164 126 63 0 0 60 96 41 123 255 255 248 202 217 152 16 6 210 155 39 255 255 191 144 106 112 0 0 0 177 216 149 127 109 103 103 78 52 
0 255 145 85 25 0 6 78 116 108 128 255 255 207 187 184 135 0 0 194 178 114 255 255 120 122 69 52 0 0 0 232 243 174 111 116 124 127 81 64 
0 255 94 58 84 53 53 110 171 171 139 255 255 171 132 165 128 0 0 204 214 156 255 255 73 75 54 0 0 0 23 209 214 181 122 126 145 154 90 57 
0 255 100 91 77 7 0 97 198 198 119 255 255 175 115 178 125 0 0 210 204 133 255 232 75 45 56 0 0 0 100 205 206 159 133 142 137 131 102 89 
0 255 160 174 142 20 34 224 255 255 139 255 255 190 154 207 122 0 47 224 187 112 255 232 114 49 57 0 0 38 81 199 255 203 124 101 127 120 103 113 
0 255 195 206 112 13 158 255 255 255 125 242 255 222 208 218 90 0 107 225 177 119 203 218 98 80 59 0 57 96 122 221 255 255 186 129 120 111 127 135 
0 255 177 141 23 0 186 255 255 211 7 174 255 246 245 222 139 118 184 232 193 175 244 205 89 93 68 89 121 128 145 238 255 248 199 162 141 143 169 166 
0 255 155 113 0 2 187 255 255 92 0 111 255 255 248 146 124 189 220 255 216 130 173 180 141 108 78 102 110 135 146 201 255 216 139 118 143 186 212 204 
0 255 141 97 15 5 195 255 221 99 0 79 232 255 255 254 141 120 144 198 144 97 137 149 132 121 71 79 77 73 112 209 255 255 201 119 124 193 214 190 
0 255 123 95 45 46 196 255 207 113 46 107 221 255 255 238 204 164 171 150 96 67 177 227 164 132 76 65 77 125 160 236 255 255 218 154 128 179 202 174 
0 255 121 104 79 85 212 255 188 125 87 208 241 255 241 185 120 111 169 179 106 110 204 172 125 139 106 98 160 250 214 255 255 255 195 92 65 151 189 166 
0 255 128 117 111 118 186 175 184 131 73 206 255 255 255 191 139 112 130 166 97 107 175 172 138 173 182 213 251 255 245 248 255 249 149 64 26 118 174 139 
0 255 115 108 113 129 132 127 147 150 114 166 237 255 255 252 217 192 188 208 161 148 217 229 219 255 255 255 204 149 127 211 255 171 74 17 32 125 170 118 
0 255 81 97 123 113 119 114 146 166 100 179 188 195 238 255 255 255 255 255 255 247 255 255 255 255 252 156 73 38 140 220 190 122 48 0 17 112 162 108 
0 255 86 105 134 116 133 114 124 93 87 212 245 205 161 177 147 142 155 234 235 213 255 255 221 187 62 0 0 93 208 228 174 116 46 5 45 118 131 83 
0 255 99 132 166 132 143 86 53 52 84 239 255 251 237 180 65 6 23 94 85 64 141 124 83 75 0 43 130 174 168 166 108 49 21 13 76 141 110 59 
0 255 110 147 162 139 116 72 50 29 54 224 247 236 255 246 186 141 173 210 173 132 226 202 165 214 173 238 255 201 118 62 51 35 24 30 107 130 72 0 
0 255 88 127 136 87 66 48 28 28 41 179 221 200 184 203 205 214 251 255 255 255 255 255 255 255 247 252 194 53 10 0 0 29 31 43 87 109 1 0 
0 106 0 0 0 0 0 0 0 0 0 0 0 0 0 0 0 0 0 0 0 0 0 0 0 0 0 0 0 0 0 0 0 0 0 0 0 0 0 0 
