P2
40 40
255
150 255 255 255 255 255 255 255 255 255 255 255 255 255 255 255 255 255 255 255 255 255 255 255 255 255 255 255 255 255 255 255 255 255 255 255 255 255 255 255 
255 255 255 225 111 186 255 255 239 167 218 229 195 159 224 255 248 147 110 72 6 0 27 148 149 149 129 104 113 206 245 218 173 87 0 0 86 255 255 255 
0 255 255 255 156 188 207 210 171 171 255 251 181 103 200 255 238 126 94 0 0 0 0 160 149 149 129 104 103 159 197 191 150 68 17 116 255 255 255 255 
0 255 255 255 224 255 255 173 52 98 232 141 39 57 238 255 255 125 90 0 0 0 0 211 162 148 129 104 81 83 116 174 132 74 105 233 255 255 255 255 
0 255 229 239 242 255 255 173 42 81 165 0 0 81 226 255 255 107 3 0 0 0 0 209 212 151 129 100 57 60 141 247 165 74 145 255 255 248 201 183 
0 255 157 199 202 232 169 70 0 28 104 0 0 101 237 255 249 30 0 0 0 0 0 162 236 181 110 54 0 28 179 255 193 108 176 232 208 186 165 150 
0 255 187 144 87 108 39 0 0 0 8 0 0 79 190 255 243 0 0 0 0 0 20 215 255 255 69 0 0 0 207 255 210 172 225 242 196 177 162 150 
0 255 181 128 108 121 0 0 0 0 0 36 0 6 84 190 182 0 0 0 0 0 69 244 255 255 58 0 0 85 255 255 255 217 227 215 186 172 160 150 
0 255 195 192 215 212 30 0 0 0 8 63 21 23 109 177 193 0 0 0 0 0 82 216 164 255 106 0 0 172 255 255 255 197 181 175 171 168 160 150 
0 255 197 195 246 186 4 0 0 16 88 82 36 53 176 255 255 0 0 57 0 0 102 191 100 255 169 8 44 202 255 255 210 162 154 159 165 168 160 150 
0 255 22 0 166 111 0 0 0 47 119 101 38 7 112 255 221 0 0 0 0 0 112 187 99 255 250 95 69 208 255 181 177 141 110 114 149 161 149 142 
0 255 0 0 189 147 44 0 8 67 121 66 45 0 69 202 192 0 0 0 0 0 93 177 88 255 255 187 152 200 189 100 179 89 0 0 41 84 39 73 
0 255 0 58 255 255 40 0 72 83 55 45 87 43 117 197 183 55 26 0 0 84 96 149 57 226 255 177 77 99 145 89 122 0 0 0 0 71 21 72 
0 255 136 235 255 242 0 32 84 59 0 10 76 75 151 210 217 139 1 0 46 241 149 93 64 165 255 132 0 53 105 57 0 0 0 0 81 131 43 70 
0 255 119 193 255 201 0 119 110 21 1 29 59 105 226 255 255 255 0 0 40 255 96 18 93 139 170 80 0 68 72 0 0 0 0 8 157 110 13 0 
0 255 78 162 255 142 0 223 165 2 18 53 88 116 244 255 255 255 0 0 122 224 0 0 94 116 91 63 0 55 48 0 52 118 126 126 114 42 0 0 
0 255 20 152 255 131 42 229 132 0 6 53 93 130 255 255 255 0 0 0 149 226 0 0 106 105 80 90 85 130 136 132 157 150 157 158 135 61 4 84 
0 255 0 148 255 126 102 205 133 26 0 74 109 175 255 255 148 0 0 0 133 222 0 19 120 162 141 158 171 233 244 183 157 184 213 191 187 181 131 122 
0 255 0 203 255 80 121 213 233 120 0 70 101 165 255 255 81 52 0 0 83 221 0 17 171 246 211 155 140 246 255 226 178 186 218 194 171 193 173 158 
0 255 141 255 255 75 199 255 196 30 0 53 124 236 255 255 30 51 0 0 98 171 0 6 184 255 158 76 92 232 255 255 223 216 231 227 185 179 149 147 
0 255 224 255 255 116 255 255 148 0 0 55 164 255 255 241 68 33 0 0 156 175 0 3 121 224 55 77 175 255 255 255 255 255 255 255 255 213 119 146 
0 255 220 255 198 104 255 255 97 0 2 16 129 255 255 116 25 108 28 0 179 154 0 62 175 253 93 206 255 255 255 255 255 255 255 255 194 230 208 205 
0 255 255 255 126 97 255 255 81 0 0 9 157 255 255 22 3 98 108 0 145 100 9 255 255 255 213 207 255 255 255 228 200 72 54 160 49 187 255 255 
0 255 192 255 80 122 255 255 42 0 0 27 229 255 255 0 97 148 30 0 81 222 236 255 255 255 218 224 255 255 168 192 171 72 26 132 85 98 149 203 
0 255 193 249 115 185 255 181 5 0 0 31 255 255 162 27 203 148 16 0 3 255 255 255 187 155 137 150 226 255 135 142 79 59 147 255 255 191 157 196 
0 255 255 255 255 255 255 177 33 0 0 89 255 255 43 80 184 95 0 0 52 255 255 143 49 197 142 85 77 146 87 116 26 69 149 255 255 255 235 165 
0 255 255 255 248 255 255 228 95 0 0 254 255 250 0 108 112 48 0 0 180 249 179 0 0 179 104 0 95 247 168 203 98 129 245 182 255 255 255 219 
0 255 255 199 178 255 251 176 52 0 5 255 255 31 0 96 142 129 65 47 169 175 126 27 30 101 32 0 63 255 255 255 160 160 255 208 243 255 255 255 
0 255 228 171 211 255 177 50 0 0 113 255 212 0 0 148 175 187 106 0 26 135 100 179 190 246 154 11 181 255 255 255 255 186 255 255 255 255 255 123 
0 255 255 255 255 255 123 0 13 9 255 255 248 0 157 219 226 177 0 0 0 226 241 204 217 255 255 255 255 255 255 255 255 255 255 255 255 255 29 0 
0 255 238 255 255 255 94 0 74 63 255 255 118 0 165 209 202 104 0 0 118 255 255 143 214 196 118 255 255 255 255 255 255 255 255 182 172 13 0 0 
0 255 255 255 255 192 47 8 106 90 255 255 0 0 152 203 192 14 0 0 255 255 114 105 255 219 24 27 34 243 201 50 0 0 0 0 0 0 17 56 
0 255 255 255 255 106 0 196 255 255 255 217 0 0 111 165 218 29 39 201 255 255 61 234 255 242 228 255 182 238 186 54 0 0 0 0 112 151 174 194 
0 255 174 239 255 168 129 255 255 255 255 123 0 18 69 118 136 58 170 255 255 242 130 255 255 136 131 209 210 255 189 0 0 0 65 140 156 135 156 173 
0 255 229 255 255 255 255 255 255 255 255 50 0 119 94 88 145 173 231 255 219 136 204 255 172 137 117 3 61 190 151 10 13 86 175 177 211 170 154 207 
0 255 255 255 255 255 255 255 255 129 113 108 159 129 120 184 255 255 255 255 255 230 240 163 52 227 190 180 158 213 238 150 202 254 199 185 223 191 201 241 
0 255 255 255 255 255 248 74 0 83 139 98 105 125 255 255 255 255 255 148 235 255 113 19 31 217 182 163 183 255 255 193 247 255 184 167 207 201 211 209 
0 255 255 255 255 236 83 0 66 211 183 79 19 0 142 255 255 212 62 65 98 71 0 80 140 212 154 68 70 152 130 51 0 73 82 99 182 159 161 151 
0 255 9 0 0 82 121 93 126 215 95 0 0 0 0 68 130 119 106 101 50 0 0 170 180 169 45 0 43 210 5 0 0 0 12 81 159 119 103 91 
0 173 0 0 0 0 0 0 0 0 0 0 0 0 0 0 0 0 0 0 0 0 0 0 0 0 0 0 0 0 0 0 0 0 0 0 0 0 0 0 
